<mxfile host="app.diagrams.net" agent="Mozilla/5.0 (Windows NT 10.0; Win64; x64) AppleWebKit/537.36 (KHTML, like Gecko) Chrome/136.0.0.0 Safari/537.36" version="27.0.9">
  <diagram name="Sequence - detectLowStockItems()" id="sequence-1">
    <mxGraphModel dx="940" dy="517" grid="1" gridSize="10" guides="1" tooltips="1" connect="1" arrows="1" fold="1" page="1" pageScale="1" pageWidth="827" pageHeight="1169" math="0" shadow="0">
      <root>
        <mxCell id="0" />
        <mxCell id="1" parent="0" />
        <mxCell id="86hexkFTFtTpV62cVOlB-1" value="InventoryService" style="rounded=0;whiteSpace=wrap;html=1;" vertex="1" parent="1">
          <mxGeometry x="89" y="120" width="120" height="60" as="geometry" />
        </mxCell>
        <mxCell id="86hexkFTFtTpV62cVOlB-2" value="InventoryItem" style="rounded=0;whiteSpace=wrap;html=1;" vertex="1" parent="1">
          <mxGeometry x="359" y="120" width="120" height="60" as="geometry" />
        </mxCell>
        <mxCell id="86hexkFTFtTpV62cVOlB-3" value="" style="endArrow=none;dashed=1;html=1;dashPattern=1 3;strokeWidth=2;rounded=0;entryX=0.5;entryY=1;entryDx=0;entryDy=0;" edge="1" parent="1" target="86hexkFTFtTpV62cVOlB-1">
          <mxGeometry width="50" height="50" relative="1" as="geometry">
            <mxPoint x="149" y="560" as="sourcePoint" />
            <mxPoint x="249" y="300" as="targetPoint" />
          </mxGeometry>
        </mxCell>
        <mxCell id="86hexkFTFtTpV62cVOlB-4" value="" style="endArrow=none;dashed=1;html=1;dashPattern=1 3;strokeWidth=2;rounded=0;" edge="1" parent="1" source="86hexkFTFtTpV62cVOlB-5" target="86hexkFTFtTpV62cVOlB-2">
          <mxGeometry width="50" height="50" relative="1" as="geometry">
            <mxPoint x="418.17" y="620" as="sourcePoint" />
            <mxPoint x="418.17" y="220" as="targetPoint" />
          </mxGeometry>
        </mxCell>
        <mxCell id="86hexkFTFtTpV62cVOlB-6" value="" style="endArrow=none;dashed=1;html=1;dashPattern=1 3;strokeWidth=2;rounded=0;" edge="1" parent="1" target="86hexkFTFtTpV62cVOlB-5">
          <mxGeometry width="50" height="50" relative="1" as="geometry">
            <mxPoint x="418" y="500" as="sourcePoint" />
            <mxPoint x="419" y="261" as="targetPoint" />
          </mxGeometry>
        </mxCell>
        <mxCell id="86hexkFTFtTpV62cVOlB-5" value="" style="rounded=0;whiteSpace=wrap;html=1;" vertex="1" parent="1">
          <mxGeometry x="409" y="291" width="20" height="79" as="geometry" />
        </mxCell>
        <mxCell id="86hexkFTFtTpV62cVOlB-8" value="" style="rounded=0;whiteSpace=wrap;html=1;" vertex="1" parent="1">
          <mxGeometry x="139" y="200" width="20" height="340" as="geometry" />
        </mxCell>
        <mxCell id="86hexkFTFtTpV62cVOlB-9" value="" style="endArrow=classic;html=1;rounded=0;" edge="1" parent="1">
          <mxGeometry width="50" height="50" relative="1" as="geometry">
            <mxPoint x="162" y="326" as="sourcePoint" />
            <mxPoint x="406" y="326" as="targetPoint" />
            <Array as="points" />
          </mxGeometry>
        </mxCell>
        <mxCell id="86hexkFTFtTpV62cVOlB-10" value="getQuantityToOrder()" style="text;html=1;align=center;verticalAlign=middle;resizable=0;points=[];autosize=1;strokeColor=none;fillColor=none;" vertex="1" parent="1">
          <mxGeometry x="193" y="301" width="140" height="30" as="geometry" />
        </mxCell>
        <mxCell id="86hexkFTFtTpV62cVOlB-20" value="return quantity" style="text;html=1;align=center;verticalAlign=middle;resizable=0;points=[];autosize=1;strokeColor=none;fillColor=none;" vertex="1" parent="1">
          <mxGeometry x="208" y="351" width="100" height="30" as="geometry" />
        </mxCell>
        <mxCell id="86hexkFTFtTpV62cVOlB-24" value="" style="endArrow=classic;html=1;rounded=0;dashed=1;" edge="1" parent="1">
          <mxGeometry width="50" height="50" relative="1" as="geometry">
            <mxPoint x="409" y="351" as="sourcePoint" />
            <mxPoint x="159" y="351" as="targetPoint" />
          </mxGeometry>
        </mxCell>
        <mxCell id="86hexkFTFtTpV62cVOlB-40" value="" style="endArrow=classic;html=1;rounded=0;exitX=1.004;exitY=0.045;exitDx=0;exitDy=0;exitPerimeter=0;entryX=1.075;entryY=0.116;entryDx=0;entryDy=0;entryPerimeter=0;" edge="1" parent="1" source="86hexkFTFtTpV62cVOlB-8" target="86hexkFTFtTpV62cVOlB-8">
          <mxGeometry width="50" height="50" relative="1" as="geometry">
            <mxPoint x="79" y="300" as="sourcePoint" />
            <mxPoint x="129" y="250" as="targetPoint" />
            <Array as="points">
              <mxPoint x="340" y="220" />
            </Array>
          </mxGeometry>
        </mxCell>
        <mxCell id="86hexkFTFtTpV62cVOlB-41" value="&lt;font style=&quot;font-size: 10px;&quot;&gt;createAndSendOrder(itemID, supplierID)&lt;/font&gt;" style="text;html=1;align=center;verticalAlign=middle;resizable=0;points=[];autosize=1;strokeColor=none;fillColor=none;" vertex="1" parent="1">
          <mxGeometry x="159" y="190" width="200" height="30" as="geometry" />
        </mxCell>
        <mxCell id="86hexkFTFtTpV62cVOlB-42" value="SupplierService &amp;lt;&amp;lt;interface&amp;gt;&amp;gt;" style="rounded=0;whiteSpace=wrap;html=1;" vertex="1" parent="1">
          <mxGeometry x="549" y="120" width="120" height="60" as="geometry" />
        </mxCell>
        <mxCell id="86hexkFTFtTpV62cVOlB-43" value="" style="endArrow=none;dashed=1;html=1;dashPattern=1 3;strokeWidth=2;rounded=0;" edge="1" parent="1" source="86hexkFTFtTpV62cVOlB-45" target="86hexkFTFtTpV62cVOlB-42">
          <mxGeometry width="50" height="50" relative="1" as="geometry">
            <mxPoint x="608.1700000000001" y="629" as="sourcePoint" />
            <mxPoint x="608.1700000000001" y="229" as="targetPoint" />
          </mxGeometry>
        </mxCell>
        <mxCell id="86hexkFTFtTpV62cVOlB-44" value="" style="endArrow=none;dashed=1;html=1;dashPattern=1 3;strokeWidth=2;rounded=0;" edge="1" parent="1" target="86hexkFTFtTpV62cVOlB-45">
          <mxGeometry width="50" height="50" relative="1" as="geometry">
            <mxPoint x="608" y="490" as="sourcePoint" />
            <mxPoint x="609" y="270" as="targetPoint" />
          </mxGeometry>
        </mxCell>
        <mxCell id="86hexkFTFtTpV62cVOlB-45" value="" style="rounded=0;whiteSpace=wrap;html=1;" vertex="1" parent="1">
          <mxGeometry x="599" y="370" width="20" height="100" as="geometry" />
        </mxCell>
        <mxCell id="86hexkFTFtTpV62cVOlB-46" value="" style="endArrow=classic;html=1;rounded=0;exitX=0.974;exitY=0.584;exitDx=0;exitDy=0;exitPerimeter=0;entryX=0;entryY=0.25;entryDx=0;entryDy=0;" edge="1" parent="1" source="86hexkFTFtTpV62cVOlB-8" target="86hexkFTFtTpV62cVOlB-45">
          <mxGeometry width="50" height="50" relative="1" as="geometry">
            <mxPoint x="540" y="380" as="sourcePoint" />
            <mxPoint x="599" y="390" as="targetPoint" />
          </mxGeometry>
        </mxCell>
        <mxCell id="86hexkFTFtTpV62cVOlB-47" value="sendOrder(order)" style="text;html=1;align=center;verticalAlign=middle;resizable=0;points=[];autosize=1;strokeColor=none;fillColor=none;" vertex="1" parent="1">
          <mxGeometry x="440" y="370" width="120" height="30" as="geometry" />
        </mxCell>
        <mxCell id="86hexkFTFtTpV62cVOlB-48" value="" style="endArrow=classic;html=1;rounded=0;dashed=1;" edge="1" parent="1">
          <mxGeometry width="50" height="50" relative="1" as="geometry">
            <mxPoint x="599" y="430" as="sourcePoint" />
            <mxPoint x="160" y="430" as="targetPoint" />
          </mxGeometry>
        </mxCell>
        <mxCell id="86hexkFTFtTpV62cVOlB-49" value="return confirmation" style="text;html=1;align=center;verticalAlign=middle;resizable=0;points=[];autosize=1;strokeColor=none;fillColor=none;" vertex="1" parent="1">
          <mxGeometry x="440" y="430" width="120" height="30" as="geometry" />
        </mxCell>
      </root>
    </mxGraphModel>
  </diagram>
</mxfile>
